<svg xmlns="http://www.w3.org/2000/svg" width="88" height="60" viewBox="0 0 88 60">
  <metadata><?xpacket begin="﻿" id="W5M0MpCehiHzreSzNTczkc9d"?>
<x:xmpmeta xmlns:x="adobe:ns:meta/" x:xmptk="Adobe XMP Core 5.6-c138 79.159824, 2016/09/14-01:09:01        ">
   <rdf:RDF xmlns:rdf="http://www.w3.org/1999/02/22-rdf-syntax-ns#">
      <rdf:Description rdf:about=""/>
   </rdf:RDF>
</x:xmpmeta>
                                                                                                    
                                                                                                    
                                                                                                    
                                                                                                    
                                                                                                    
                                                                                                    
                                                                                                    
                                                                                                    
                                                                                                    
                                                                                                    
                                                                                                    
                                                                                                    
                                                                                                    
                                                                                                    
                                                                                                    
                                                                                                    
                                                                                                    
                                                                                                    
                                                                                                    
                                                                                                    
                           
<?xpacket end="w"?></metadata>
<defs>
    <style>
      .cls-1 {
        fill: #ff6700;
      }

      .cls-1, .cls-2 {
        fill-rule: evenodd;
      }

      .cls-2 {
        fill: #8da5ae;
      }
    </style>
  </defs>
  <path id="mi_logo" data-name="mi logo" class="cls-1" d="M57.719-.009H2.269A2.278,2.278,0,0,0-.008,2.268v55.45A2.278,2.278,0,0,0,2.269,60h55.45A2.278,2.278,0,0,0,60,57.719V2.268A2.278,2.278,0,0,0,57.719-.009ZM27.985,40.764a0.362,0.362,0,0,1-.365.357H22.664a0.364,0.364,0,0,1-.368-0.357V27.8a0.364,0.364,0,0,1,.368-0.357h4.957a0.362,0.362,0,0,1,.365.357V40.764Zm9.705,0a0.363,0.363,0,0,1-.365.357H32.606a0.363,0.363,0,0,1-.367-0.357V27.106a3.448,3.448,0,0,0-3.672-3.6H18.4a0.362,0.362,0,0,0-.365.357V40.764a0.364,0.364,0,0,1-.367.357H12.942a0.361,0.361,0,0,1-.365-0.357V19.225a0.361,0.361,0,0,1,.365-0.359H30.924a6.376,6.376,0,0,1,4.989,1.951,6.1,6.1,0,0,1,1.777,4.667v15.28Zm9.721,0a0.364,0.364,0,0,1-.367.357H42.324a0.362,0.362,0,0,1-.366-0.357V19.225a0.363,0.363,0,0,1,.366-0.359h4.721a0.365,0.365,0,0,1,.367.359V40.764Z"/>
  <path id="BY" class="cls-2" d="M73.482,10.649a3.017,3.017,0,0,0,1.062-1.188,3.556,3.556,0,0,0,.412-1.681,4.263,4.263,0,0,0-.316-1.724,3.153,3.153,0,0,0-.871-1.178A3.538,3.538,0,0,0,72.458,4.2a5.919,5.919,0,0,0-1.617-.214H66.152a1.072,1.072,0,0,0-.919.321A1.75,1.75,0,0,0,65,5.317V17.694a1.694,1.694,0,0,0,.23,1,1.092,1.092,0,0,0,.919.311h4.8a4.783,4.783,0,0,0,1.789-.332,4.44,4.44,0,0,0,1.455-.931,4.3,4.3,0,0,0,.976-1.435,4.73,4.73,0,0,0,.354-1.863,5.4,5.4,0,0,0-.115-1.092,4.035,4.035,0,0,0-.364-1.039,3.587,3.587,0,0,0-.641-0.878,2.989,2.989,0,0,0-.928-0.632v-0.15Zm-1.043,4.218a1.708,1.708,0,0,1-.3.621,1.6,1.6,0,0,1-.574.46,2,2,0,0,1-.9.182H67.913V12.3h2.756a1.747,1.747,0,0,1,1.387.535,2.037,2.037,0,0,1,.469,1.392A2.64,2.64,0,0,1,72.439,14.867Zm-4.526-8.03h2.7a1.324,1.324,0,0,1,.976.361,1.346,1.346,0,0,1,.364,1,1.742,1.742,0,0,1-.134.733,1.165,1.165,0,0,1-.344.446A1.274,1.274,0,0,1,71,9.6a2.04,2.04,0,0,1-.488.064h-2.6V6.838ZM82.132,10.5L80.908,7.437,79.625,4.461a1.062,1.062,0,0,0-.2-0.364,0.517,0.517,0,0,0-.373-0.107H76.64a0.236,0.236,0,0,0-.258.15,0.321,0.321,0,0,0,.01.257l4.382,9.122v5.053a0.367,0.367,0,0,0,.4.428h2.086a0.442,0.442,0,0,0,.345-0.1,0.546,0.546,0,0,0,.076-0.332v-5.1l4.268-9.1A0.527,0.527,0,0,0,88,4.118Q87.988,3.99,87.72,3.99H85.29a0.453,0.453,0,0,0-.316.1,0.941,0.941,0,0,0-.2.31L83.51,7.33,82.247,10.5H82.132Z"/>
</svg>
